<svg xmlns="http://www.w3.org/2000/svg" viewBox="0 0 900 560"><defs><linearGradient id="g" x1="0" x2="1"><stop stop-color="#111b33"/><stop offset="1" stop-color="#050711"/></linearGradient><filter id="glow"><feGaussianBlur stdDeviation="5" result="b"/><feMerge><feMergeNode in="b"/><feMergeNode in="SourceGraphic"/></feMerge></filter></defs><rect width="900" height="560" rx="36" fill="url(#g)" stroke="#00d9ff" stroke-width="3"/><rect x="32" y="34" width="170" height="492" rx="24" fill="#080d1c" stroke="#ff365e" stroke-width="3"/><text x="58" y="88" fill="#ff365e" font-size="42" font-family="Arial" font-weight="900">G19</text><text x="58" y="148" fill="#eff8ff" font-size="48" font-family="Arial" font-weight="900">13:08</text><g fill="#050711" stroke="#ff365e" stroke-width="3"><rect x="58" y="205" width="116" height="54" rx="16"/><rect x="58" y="278" width="116" height="54" rx="16"/><rect x="58" y="351" width="116" height="54" rx="16"/></g><g filter="url(#glow)"><rect x="245" y="60" width="145" height="110" rx="20" fill="#081022" stroke="#00d9ff"/><rect x="420" y="60" width="145" height="110" rx="20" fill="#081022" stroke="#00d9ff"/><rect x="595" y="60" width="145" height="110" rx="20" fill="#081022" stroke="#00d9ff"/></g><text x="268" y="106" fill="#98b7c8" font-size="22" font-family="Arial">CPU</text><text x="268" y="145" fill="#00d9ff" font-size="38" font-family="Arial" font-weight="900">42%</text><text x="443" y="106" fill="#98b7c8" font-size="22" font-family="Arial">GPU</text><text x="443" y="145" fill="#00d9ff" font-size="38" font-family="Arial" font-weight="900">68%</text><text x="618" y="106" fill="#98b7c8" font-size="22" font-family="Arial">RAM</text><text x="618" y="145" fill="#00d9ff" font-size="38" font-family="Arial" font-weight="900">57%</text><path d="M250 390 C 330 250, 420 420, 520 310 S 690 300, 760 210" fill="none" stroke="#ff365e" stroke-width="8" stroke-linecap="round"/><path d="M250 420 C 340 350, 430 470, 520 370 S 690 390, 760 300" fill="none" stroke="#00d9ff" stroke-width="5" stroke-linecap="round" opacity=".9"/><circle cx="760" cy="210" r="12" fill="#00d9ff"/></svg>